<svg width="32" height="32" viewBox="0 0 573 582" fill="none" xmlns="http://www.w3.org/2000/svg">
  <path fill="#000" d="m9 168h450v79H9z"/>
  <path fill="#000" d="m9 327h555v79H9z"/>
  <path fill="#000" d="m9 485h555v79H9z"/>
  <path fill="#000" d="M247 10c0 131-106 237-237 238l0-77c89 0 160-72 160-161h77z"/>
  <path fill="#000" d="M406 10c0 219-177 396-396 396l0-78c176 0 318-143 318-319h78z"/>
  <path fill="#000" d="M565 10c0 147-59 288-163 392-104 104-245 163-393 163l0-79c126 0 248-50 337-139 89-89 140-211 140-337h79z"/>
  <circle fill="#000" cx="49" cy="49" r="40"/>
</svg>
