<svg version="1.1" viewBox="0.0 0.0 572.9160104986877 581.6666666666666" fill="none" stroke="none" stroke-linecap="square" stroke-miterlimit="10" xmlns:xlink="http://www.w3.org/1999/xlink" xmlns="http://www.w3.org/2000/svg"><clipPath id="p.0"><path d="m0 0l572.916 0l0 581.6667l-572.916 0l0 -581.6667z" clip-rule="nonzero"/></clipPath><g clip-path="url(#p.0)"><path fill="#000000" fill-opacity="0.0" d="m0 0l572.916 0l0 581.6667l-572.916 0z" fill-rule="evenodd"/><path fill="#000000" d="m8.90726 168.12154l449.73425 0l0 79.296005l-449.73425 0z" fill-rule="evenodd"/><path stroke="#000000" stroke-width="0.8293963254593175" stroke-linejoin="round" stroke-linecap="butt" d="m8.90726 168.12154l449.73425 0l0 79.296005l-449.73425 0z" fill-rule="evenodd"/><path fill="#000000" d="m8.90726 326.71353l555.07196 0l0 79.29602l-555.07196 0z" fill-rule="evenodd"/><path stroke="#000000" stroke-width="0.8293963254593175" stroke-linejoin="round" stroke-linecap="butt" d="m8.90726 326.71353l555.07196 0l0 79.29602l-555.07196 0z" fill-rule="evenodd"/><path fill="#000000" d="m8.90726 485.30554l555.07196 0l0 79.29602l-555.07196 0z" fill-rule="evenodd"/><path stroke="#000000" stroke-width="0.8293963254593175" stroke-linejoin="round" stroke-linecap="butt" d="m8.90726 485.30554l555.07196 0l0 79.29602l-555.07196 0z" fill-rule="evenodd"/><path fill="#000000" d="m247.38495 9.5390215l0 0c-0.005218506 130.99026 -105.905045 237.32921 -236.89417 237.87645l-0.3217821 -77.022705l0 0c88.57746 -0.37005615 160.18906 -72.27857 160.19258 -160.85681z" fill-rule="evenodd"/><path stroke="#000000" stroke-width="0.5826771653543307" stroke-linejoin="round" stroke-linecap="butt" d="m247.38495 9.5390215l0 0c-0.005218506 130.99026 -105.905045 237.32921 -236.89417 237.87645l-0.3217821 -77.022705l0 0c88.57746 -0.37005615 160.18906 -72.27857 160.19258 -160.85681z" fill-rule="evenodd"/><path fill="#000000" d="m405.97696 9.5453415l0 0c-0.008728027 218.63748 -177.00754 396.0026 -395.64456 396.46332l-0.16341591 -77.55133l0 0c175.87161 -0.37057495 318.24945 -143.04309 318.25647 -318.9151z" fill-rule="evenodd"/><path stroke="#000000" stroke-width="0.973753280839895" stroke-linejoin="round" stroke-linecap="butt" d="m405.97696 9.5453415l0 0c-0.008728027 218.63748 -177.00754 396.0026 -395.64456 396.46332l-0.16341591 -77.55133l0 0c175.87161 -0.37057495 318.24945 -143.04309 318.25647 -318.9151z" fill-rule="evenodd"/><path fill="#000000" d="m564.569 9.551662l0 0c-0.005859375 147.24149 -58.513733 288.44772 -162.6481 392.54428c-104.13434 104.09656 -245.36182 162.55316 -392.6033 162.50555l0.025465965 -78.798004c126.33908 0.04083252 247.5179 -50.11725 336.86935 -139.43628c89.35144 -89.319 139.55353 -210.4796 139.55856 -336.8187z" fill-rule="evenodd"/><path stroke="#000000" stroke-width="1.3648293963254594" stroke-linejoin="round" stroke-linecap="butt" d="m564.569 9.551662l0 0c-0.005859375 147.24149 -58.513733 288.44772 -162.6481 392.54428c-104.13434 104.09656 -245.36182 162.55316 -392.6033 162.50555l0.025465965 -78.798004c126.33908 0.04083252 247.5179 -50.11725 336.86935 -139.43628c89.35144 -89.319 139.55353 -210.4796 139.55856 -336.8187z" fill-rule="evenodd"/><path fill="#000000" d="m8.90726 49.17754l0 0c0 -21.896984 17.751015 -39.648 39.648 -39.648l0 0c10.515305 0 20.59993 4.177189 28.03537 11.612631c7.43544 7.435442 11.612633 17.520067 11.612633 28.035368l0 0c0 21.896984 -17.751015 39.648 -39.648003 39.648l0 0c-21.896986 0 -39.648 -17.751015 -39.648 -39.648z" fill-rule="evenodd"/><path stroke="#000000" stroke-width="0.8293963254593175" stroke-linejoin="round" stroke-linecap="butt" d="m8.90726 49.17754l0 0c0 -21.896984 17.751015 -39.648 39.648 -39.648l0 0c10.515305 0 20.59993 4.177189 28.03537 11.612631c7.43544 7.435442 11.612633 17.520067 11.612633 28.035368l0 0c0 21.896984 -17.751015 39.648 -39.648003 39.648l0 0c-21.896986 0 -39.648 -17.751015 -39.648 -39.648z" fill-rule="evenodd"/></g></svg>