<svg version="1.1" viewBox="0.0 0.0 3405.3333333333335 769.3333333333334" fill="none" stroke="none" stroke-linecap="square" stroke-miterlimit="10" xmlns:xlink="http://www.w3.org/1999/xlink" xmlns="http://www.w3.org/2000/svg"><clipPath id="p.0"><path d="m0 0l3405.3333 0l0 769.3333l-3405.3333 0l0 -769.3333z" clip-rule="nonzero"/></clipPath><g clip-path="url(#p.0)"><path fill="#000000" fill-opacity="0.0" d="m0 0l3405.3333 0l0 769.3333l-3405.3333 0z" fill-rule="evenodd"/><path fill="#000000" d="m56.62472 272.02966l399.86057 0l0 70.50238l-399.86057 0z" fill-rule="evenodd"/><path stroke="#000000" stroke-width="0.7375328083989501" stroke-linejoin="round" stroke-linecap="butt" d="m56.62472 272.02966l399.86057 0l0 70.50238l-399.86057 0z" fill-rule="evenodd"/><path fill="#000000" d="m56.62472 413.03445l493.5168 0l0 70.50241l-493.5168 0z" fill-rule="evenodd"/><path stroke="#000000" stroke-width="0.7375328083989501" stroke-linejoin="round" stroke-linecap="butt" d="m56.62472 413.03445l493.5168 0l0 70.50241l-493.5168 0z" fill-rule="evenodd"/><path fill="#000000" d="m56.62472 554.03925l493.5168 0l0 70.50238l-493.5168 0z" fill-rule="evenodd"/><path stroke="#000000" stroke-width="0.7375328083989501" stroke-linejoin="round" stroke-linecap="butt" d="m56.62472 554.03925l493.5168 0l0 70.50238l-493.5168 0z" fill-rule="evenodd"/><path fill="#000000" d="m268.65622 131.03328l0 0c-0.004638672 116.46399 -94.160614 211.01036 -210.62358 211.49693l-0.28609848 -68.4812l0 0c78.75459 -0.32904053 142.42474 -64.26318 142.42789 -143.01846z" fill-rule="evenodd"/><path stroke="#000000" stroke-width="0.5170603674540682" stroke-linejoin="round" stroke-linecap="butt" d="m268.65622 131.03328l0 0c-0.004638672 116.46399 -94.160614 211.01036 -210.62358 211.49693l-0.28609848 -68.4812l0 0c78.75459 -0.32904053 142.42474 -64.26318 142.42789 -143.01846z" fill-rule="evenodd"/><path fill="#000000" d="m409.661 131.0389l0 0c-0.007751465 194.3915 -157.37811 352.08752 -351.76917 352.4972l-0.14529419 -68.9512l0 0c156.36816 -0.3294983 282.9569 -127.18021 282.96313 -283.5487z" fill-rule="evenodd"/><path stroke="#000000" stroke-width="0.8661417322834646" stroke-linejoin="round" stroke-linecap="butt" d="m409.661 131.0389l0 0c-0.007751465 194.3915 -157.37811 352.08752 -351.76917 352.4972l-0.14529419 -68.9512l0 0c156.36816 -0.3294983 282.9569 -127.18021 282.96313 -283.5487z" fill-rule="evenodd"/><path fill="#000000" d="m550.66583 131.04453l0 0c-0.0052490234 130.91302 -52.02481 256.46005 -144.61108 349.01273c-92.58627 92.55267 -218.1522 144.52667 -349.06522 144.48438l0.022644043 -70.05963c112.328606 0.036315918 220.06918 -44.55948 299.5119 -123.97336c79.44275 -79.41391 124.07761 -187.1383 124.08209 -299.46692z" fill-rule="evenodd"/><path stroke="#000000" stroke-width="1.2125984251968505" stroke-linejoin="round" stroke-linecap="butt" d="m550.66583 131.04453l0 0c-0.0052490234 130.91302 -52.02481 256.46005 -144.61108 349.01273c-92.58627 92.55267 -218.1522 144.52667 -349.06522 144.48438l0.022644043 -70.05963c112.328606 0.036315918 220.06918 -44.55948 299.5119 -123.97336c79.44275 -79.41391 124.07761 -187.1383 124.08209 -299.46692z" fill-rule="evenodd"/><path fill="#000000" d="m56.62472 166.27605l0 0c0 -19.468704 15.782497 -35.25119 35.2512 -35.25119l0 0c9.349197 0 18.315483 3.7139435 24.926361 10.324829c6.6108856 6.6108856 10.324837 15.577164 10.324837 24.926361l0 0c0 19.468704 -15.782501 35.251205 -35.251198 35.251205l0 0c-19.468704 0 -35.2512 -15.782501 -35.2512 -35.251205z" fill-rule="evenodd"/><path stroke="#000000" stroke-width="0.7375328083989501" stroke-linejoin="round" stroke-linecap="butt" d="m56.62472 166.27605l0 0c0 -19.468704 15.782497 -35.25119 35.2512 -35.25119l0 0c9.349197 0 18.315483 3.7139435 24.926361 10.324829c6.6108856 6.6108856 10.324837 15.577164 10.324837 24.926361l0 0c0 19.468704 -15.782501 35.251205 -35.251198 35.251205l0 0c-19.468704 0 -35.2512 -15.782501 -35.2512 -35.251205z" fill-rule="evenodd"/><path fill="#000000" fill-opacity="0.0" d="m620.7619 67.76903l2982.677 0l0 665.7953l-2982.677 0z" fill-rule="evenodd"/><path fill="#000000" d="m902.29315 483.1753q0 33.59375 -16.53125 58.671875q-16.53125 25.0625 -47.734375 38.65625q-31.203125 13.59375 -76.0 13.59375q-19.734375 0 -38.671875 -2.671875q-18.921875 -2.65625 -36.265625 -7.71875q-17.328125 -5.078125 -32.796875 -12.53125l0 -75.203125q27.203125 11.734375 56.265625 21.609375q29.0625 9.859375 57.875 9.859375q19.71875 0 31.71875 -5.328125q12.0 -5.34375 17.59375 -14.40625q5.609375 -9.0625 5.609375 -20.796875q0 -14.40625 -9.875 -24.53125q-9.859375 -10.140625 -26.390625 -18.9375q-16.53125 -8.796875 -37.859375 -18.9375q-13.34375 -6.40625 -28.8125 -15.203125q-15.453125 -8.796875 -29.59375 -21.859375q-14.125 -13.0625 -23.203125 -31.734375q-9.0625 -18.671875 -9.0625 -44.796875q0 -34.140625 15.734375 -58.406265q15.734375 -24.265625 44.796875 -37.0625q29.078125 -12.796875 68.53125 -12.796875q29.875 0 56.796875 6.9375q26.9375 6.921875 56.28125 19.71875l-26.140625 62.937515q-26.125 -10.671875 -46.9375 -16.53125q-20.796875 -5.875 -42.65625 -5.875q-14.9375 0 -25.609375 4.8125q-10.65625 4.796875 -16.265625 13.328125q-5.59375 8.53125 -5.59375 20.265625q0 13.328125 8.0 22.671875q8.0 9.328125 24.0 17.859375q16.0 8.53125 40.0 20.265625q29.328125 13.875 49.859375 28.8125q20.53125 14.921875 31.734375 35.1875q11.203125 20.265625 11.203125 50.140625zm328.5357 -185.60938l0 291.20312l-61.875 0l-10.125 -37.328125l-4.8125 0q-9.0625 14.921875 -23.203125 24.53125q-14.125 9.59375 -30.921875 13.859375q-16.796875 4.265625 -35.46875 4.265625q-30.9375 0 -54.140686 -11.1875q-23.1875 -11.203125 -36.265625 -34.671875q-13.0625 -23.46875 -13.0625 -60.796875l0 -189.875l81.078186 0l0 169.60938q0 30.921875 10.921875 46.65625q10.9375 15.734375 34.9375 15.734375q24.53125 0 38.125 -10.921875q13.609375 -10.9375 18.9375 -32.265625q5.34375 -21.34375 5.34375 -52.28125l0 -136.53125l80.53125 0zm158.92883 -19.734375q0 16.546875 -0.8125 31.484375q-0.796875 14.921875 -2.390625 26.125l3.203125 0q11.734375 -18.140625 31.46875 -30.671875q19.734375 -12.53125 51.1875 -12.53125q48.546875 0 78.9375 38.140625q30.40625 38.125 30.40625 112.265625q0 49.59375 -13.875 83.46875q-13.859375 33.859375 -39.203125 50.921875q-25.328125 17.0625 -58.390625 17.0625q-32.0 0 -50.40625 -11.453125q-18.390625 -11.46875 -30.125 -25.34375l-5.34375 0l-13.328125 31.46875l-61.859375 0l0 -405.32812l80.53125 0l0 94.39064zm56.53125 78.40625q-20.265625 0 -32.796875 8.53125q-12.53125 8.53125 -18.140625 25.875q-5.59375 17.328125 -5.59375 45.0625l0 9.59375q0 41.0625 12.53125 62.40625q12.53125 21.328125 45.0625 21.328125q26.140625 0 39.46875 -22.390625q13.328125 -22.40625 13.328125 -65.078125q0 -42.125 -13.0625 -63.71875q-13.0625 -21.609375 -40.796875 -21.609375zm507.7196 -148.26564l-129.59375 380.79688l-88.0 0l-129.0625 -380.79688l81.59375 0l71.46875 226.67189q2.140625 5.859375 6.140625 21.59375q4.0 15.734375 8.265625 33.078125q4.265625 17.328125 5.859375 29.046875q1.609375 -11.71875 5.609375 -29.046875q4.0 -17.34375 8.265625 -33.078125q4.265625 -15.734375 5.859375 -21.59375l72.0 -226.67189l81.59375 0zm0.006958008 89.593765l84.796875 0l54.937378 166.40625q2.671875 8.0 5.0625 16.265625q2.40625 8.265625 4.265625 16.796875q1.875 8.53125 2.9375 16.53125l2.125 0q1.609375 -11.203125 5.609375 -24.53125q4.0 -13.328125 7.734375 -25.0625l53.859375 -166.40625l83.203125 0l-119.46875 317.875q-11.734375 32.53125 -28.0 55.1875q-16.265625 22.671875 -39.734375 34.40625q-23.468628 11.734375 -58.124878 11.734375q-13.34375 0 -23.484375 -1.34375q-10.125 -1.328125 -17.046875 -2.921875l0 -63.46875q5.859375 1.0625 14.125 2.125q8.265625 1.078125 17.34375 1.078125q16.53125 0 27.71875 -6.671875q11.203125 -6.65625 18.671753 -17.59375q7.46875 -10.9375 12.796875 -24.796875l6.40625 -16.546875l-115.73425 -289.0625zm549.8585 205.34375q0 27.734375 -13.0625 48.265625q-13.0625 20.53125 -39.734375 31.734375q-26.671875 11.1875 -67.734375 11.1875q-30.9375 0 -54.40625 -4.0q-23.453125 -4.0 -45.328125 -13.0625l0 -66.671875q23.46875 11.203125 50.671875 17.609375q27.203125 6.390625 46.9375 6.390625q24.53125 0 35.453125 -6.921875q10.9375 -6.9375 10.9375 -18.671875q0 -8.0 -5.609375 -14.390625q-5.59375 -6.40625 -19.734375 -13.34375q-14.125 -6.9375 -40.25 -17.0625q-26.140625 -10.671875 -43.734375 -22.125q-17.59375 -11.46875 -26.40625 -27.46875q-8.796875 -16.0 -8.796875 -40.0q0 -40.0 31.734375 -61.0625q31.734375 -21.078125 84.0 -21.078125q28.265625 0 52.53125 5.875q24.265625 5.859375 49.328125 16.53125l-23.453125 54.921875q-20.28125 -9.0625 -41.609375 -14.921875q-21.328125 -5.875 -37.859375 -5.875q-18.140625 0 -28.28125 5.609375q-10.125 5.59375 -10.125 15.71875q0 7.46875 5.59375 13.34375q5.609375 5.859375 19.734375 12.265625q14.140625 6.390625 39.734375 16.53125q26.140625 10.140625 44.0 21.609375q17.875 11.453125 26.671875 27.71875q8.796875 16.265625 8.796875 41.34375zm142.40259 -205.34375l0 291.20312l-80.53125 0l0 -291.20312l80.53125 0zm-40.0 -114.656265q17.59375 0 30.65625 8.265625q13.078125 8.265625 13.078125 31.203125q0 21.859375 -13.078125 30.390625q-13.0625 8.531265 -30.65625 8.531265q-18.140625 0 -30.9375 -8.531265q-12.796875 -8.53125 -12.796875 -30.390625q0 -22.9375 12.796875 -31.203125q12.796875 -8.265625 30.9375 -8.265625zm387.19946 259.73438q0 36.265625 -9.875 64.53125q-9.859375 28.265625 -28.265625 47.46875q-18.390625 19.1875 -44.53125 29.328125q-26.125 10.125 -59.203125 10.125q-30.921875 0 -56.53125 -10.125q-25.59375 -10.140625 -44.265625 -29.328125q-18.65625 -19.203125 -29.328125 -47.46875q-10.671875 -28.265625 -10.671875 -64.53125q0 -48.546875 17.0625 -82.140625q17.078125 -33.59375 49.078125 -50.921875q32.0 -17.34375 76.265625 -17.34375q41.0625 0 72.53125 17.34375q31.46875 17.328125 49.59375 50.921875q18.140625 33.59375 18.140625 82.140625zm-200.53125 0q0 28.265625 6.125 48.53125q6.140625 20.265625 19.203125 30.9375q13.0625 10.65625 34.40625 10.65625q20.796875 0 33.859375 -10.65625q13.0625 -10.671875 18.921875 -30.9375q5.875 -20.265625 5.875 -48.53125q0 -28.8125 -6.140625 -48.53125q-6.125 -19.734375 -18.921875 -30.140625q-12.796875 -10.40625 -34.140625 -10.40625q-30.921875 0 -45.0625 22.9375q-14.125 22.9375 -14.125 66.140625zm431.45508 -150.40625q48.0 0 75.734375 25.078125q27.734375 25.0625 27.734375 81.59375l0 189.85938l-80.0 0l0 -169.59375q0 -31.46875 -11.46875 -47.203125q-11.46875 -15.734375 -35.46875 -15.734375q-36.265625 0 -49.328125 24.796875q-13.0625 24.796875 -13.0625 71.203125l0 136.53125l-80.53125 0l0 -291.20312l61.859375 0l11.203125 38.9375l3.203125 0q9.59375 -14.390625 23.1875 -24.25q13.609375 -9.875 30.40625 -14.9375q16.796875 -5.078125 36.53125 -5.078125z" fill-rule="nonzero"/></g></svg>