<svg xmlns="http://www.w3.org/2000/svg" viewBox="0 0 64 64">
  <defs>
    <linearGradient id="g" x1="0%" y1="0%" x2="100%" y2="100%">
      <stop offset="0%" stop-color="#6cf0c2"/>
      <stop offset="100%" stop-color="#65b7ff"/>
    </linearGradient>
  </defs>
  <rect width="64" height="64" rx="14" fill="#05070d"/>
  <path d="M16 44c0-12 9-24 23-24 3 0 5 1 9 3l-6 6c-1-1-2-1-3-1-7 0-11 7-11 16H16z" fill="url(#g)" />
  <path d="M48 20c-1 0-2 1-2 2 0 1 1 2 2 2s2-1 2-2c0-1-1-2-2-2z" fill="#f5b64c"/>
</svg>
